<?xml version="1.0" standalone="no"?>
<!DOCTYPE svg PUBLIC "-//W3C//DTD SVG 20010904//EN"
 "http://www.w3.org/TR/2001/REC-SVG-20010904/DTD/svg10.dtd">
<svg version="1.0" xmlns="http://www.w3.org/2000/svg"
 width="512.000000pt" height="512.000000pt" viewBox="0 0 512.000000 512.000000"
 preserveAspectRatio="xMidYMid meet">

<g transform="translate(0.000000,512.000000) scale(0.100000,-0.100000)"
fill="#ffffff" stroke="none">
<path d="M2485 5111 c-92 -24 -173 -90 -215 -176 l-25 -50 -3 -1274 -2 -1275
-318 316 c-291 290 -322 317 -375 337 -71 26 -164 28 -233 4 -67 -23 -164
-120 -187 -187 -24 -69 -22 -162 4 -233 20 -55 54 -91 633 -669 486 -486 621
-616 661 -635 71 -34 199 -34 270 0 40 19 175 149 661 635 586 586 613 613
634 671 28 78 25 188 -8 255 -28 59 -92 124 -151 152 -68 34 -177 37 -256 7
-56 -20 -82 -43 -377 -337 l-318 -316 -2 1275 -3 1274 -34 63 c-57 105 -144
160 -260 167 -36 2 -79 1 -96 -4z"/>
<path d="M245 631 c-90 -22 -173 -90 -215 -176 -34 -69 -35 -198 -2 -265 34
-71 75 -113 144 -151 l63 -34 2325 0 2325 0 51 27 c76 40 107 70 145 140 31
58 34 70 34 148 0 78 -3 90 -34 148 -37 69 -79 109 -151 144 l-45 23 -2305 2
c-1268 0 -2318 -2 -2335 -6z"/>
</g>
</svg>
