<?xml version="1.0" standalone="no"?>
<!DOCTYPE svg PUBLIC "-//W3C//DTD SVG 20010904//EN"
 "http://www.w3.org/TR/2001/REC-SVG-20010904/DTD/svg10.dtd">
<svg version="1.0" xmlns="http://www.w3.org/2000/svg"
 width="512.000000pt" height="512.000000pt" viewBox="0 0 512.000000 512.000000"
 preserveAspectRatio="xMidYMid meet">

<g transform="translate(0.000000,512.000000) scale(0.100000,-0.100000)"
fill="#ffffff" stroke="none">
<path d="M245 5111 c-90 -22 -172 -90 -215 -176 l-25 -50 -3 -649 c-3 -734 -5
-715 71 -808 149 -183 432 -147 537 67 l25 50 3 467 3 467 467 3 467 3 57 28
c188 92 237 342 97 500 -22 26 -65 58 -97 74 l-57 28 -650 2 c-357 1 -663 -2
-680 -6z"/>
<path d="M3522 5101 c-166 -58 -254 -249 -191 -415 26 -71 91 -140 164 -176
l50 -25 468 -3 467 -3 0 -448 c0 -507 1 -515 74 -604 148 -182 431 -146 536
68 l25 50 0 670 0 670 -34 63 c-37 69 -79 109 -151 144 l-45 23 -655 2 c-614
3 -658 2 -708 -16z"/>
<path d="M201 1788 c-66 -25 -143 -99 -174 -166 -22 -47 -22 -49 -22 -717 l0
-670 23 -45 c35 -72 75 -114 144 -151 l63 -34 670 0 670 0 57 28 c236 116 236
458 0 574 l-57 28 -467 3 -467 3 -3 467 -3 467 -25 50 c-75 154 -251 224 -409
163z"/>
<path d="M4681 1788 c-66 -25 -143 -99 -174 -166 -21 -46 -22 -58 -25 -514
l-3 -468 -448 0 c-507 0 -515 -1 -604 -74 -182 -148 -146 -431 68 -536 l50
-25 670 0 670 0 51 27 c76 40 107 70 145 140 l34 63 0 670 0 670 -25 50 c-75
154 -251 224 -409 163z"/>
</g>
</svg>
