<?xml version="1.0" standalone="no"?>
<!DOCTYPE svg PUBLIC "-//W3C//DTD SVG 20010904//EN"
 "http://www.w3.org/TR/2001/REC-SVG-20010904/DTD/svg10.dtd">
<svg version="1.0" xmlns="http://www.w3.org/2000/svg"
 width="512.000000pt" height="512.000000pt" viewBox="0 0 512.000000 512.000000"
 preserveAspectRatio="xMidYMid meet">

<g transform="translate(0.000000,512.000000) scale(0.100000,-0.100000)"
fill="#ffffff" stroke="none">
<path d="M220 5104 c-142 -52 -229 -183 -218 -327 10 -123 2 -113 616 -729
l565 -567 -269 -3 -269 -3 -50 -27 c-149 -78 -215 -240 -162 -395 24 -69 93
-145 165 -180 l57 -28 690 0 690 0 52 24 c66 29 143 111 169 176 18 48 19 83
19 735 l0 685 -28 57 c-119 242 -448 243 -575 3 l-27 -50 -3 -269 -3 -269
-567 565 c-456 455 -577 569 -617 588 -66 30 -173 37 -235 14z"/>
<path d="M4700 5104 c-25 -9 -63 -29 -85 -44 -22 -16 -285 -274 -585 -574
l-545 -546 -5 267 c-5 266 -5 268 -32 318 -78 149 -240 215 -395 162 -69 -24
-145 -93 -180 -165 l-28 -57 0 -685 c0 -652 1 -687 19 -735 26 -65 103 -147
169 -176 l52 -24 690 0 690 0 57 28 c241 118 244 449 5 575 l-52 27 -269 3
-269 3 565 567 c449 451 570 577 588 617 35 73 35 200 0 270 -32 64 -92 124
-155 154 -65 31 -172 38 -235 15z"/>
<path d="M650 2267 c-142 -39 -236 -167 -234 -318 2 -117 67 -218 179 -277
l50 -27 269 -3 269 -3 -565 -567 c-445 -447 -570 -578 -589 -617 -34 -72 -34
-199 1 -270 31 -64 91 -124 155 -155 71 -35 198 -35 270 -1 39 19 170 144 617
589 l567 565 3 -269 3 -269 27 -50 c78 -149 240 -215 395 -162 69 24 145 93
180 165 l28 57 0 685 c0 652 -1 687 -19 735 -26 65 -103 147 -169 176 l-52 24
-670 2 c-509 2 -681 -1 -715 -10z"/>
<path d="M3087 2269 c-94 -22 -188 -104 -223 -194 -18 -48 -19 -84 -19 -735
l0 -685 28 -57 c119 -242 448 -243 575 -3 l27 50 3 269 3 269 567 -565 c447
-445 578 -570 617 -589 72 -34 199 -34 270 1 64 31 124 91 155 155 34 72 35
199 1 270 -19 39 -144 171 -589 617 l-565 567 269 3 269 3 52 27 c147 78 213
240 160 395 -24 69 -93 145 -165 180 l-57 28 -670 2 c-371 1 -687 -3 -708 -8z"/>
</g>
</svg>
